<svg width="1471" height="587" xmlns="http://www.w3.org/2000/svg" xmlns:xlink="http://www.w3.org/1999/xlink" xml:space="preserve" overflow="hidden"><defs><clipPath id="clip0"><rect x="916" y="430" width="1471" height="587"/></clipPath><clipPath id="clip1"><path d="M1867.11 614.017 1702.98 802.859 1514.14 638.733 1678.27 449.891Z" fill-rule="nonzero" clip-rule="nonzero"/></clipPath><clipPath id="clip2"><path d="M1867.11 614.017 1702.98 802.859 1514.14 638.733 1678.27 449.891Z" fill-rule="evenodd" clip-rule="evenodd"/></clipPath><clipPath id="clip3"><path d="M1867.11 614.017 1702.98 802.859 1514.14 638.733 1678.27 449.891Z" fill-rule="evenodd" clip-rule="evenodd"/></clipPath></defs><g clip-path="url(#clip0)" transform="translate(-916 -430)"><path d="M924.5 782.501C924.5 760.961 941.961 743.5 963.501 743.5L1144.5 743.5C1166.04 743.5 1183.5 760.961 1183.5 782.501L1183.5 938.499C1183.5 960.039 1166.04 977.5 1144.5 977.5L963.501 977.5C941.961 977.5 924.5 960.039 924.5 938.499Z" stroke="#BC7D2C" stroke-width="9.16667" stroke-linecap="butt" stroke-linejoin="round" stroke-miterlimit="10" stroke-opacity="1" fill="#FFAB40" fill-rule="evenodd" fill-opacity="1"/><text fill="#FFFFFF" fill-opacity="1" font-family="Arial,Arial_MSFontService,sans-serif" font-style="normal" font-variant="normal" font-weight="400" font-stretch="normal" font-size="110" text-anchor="start" direction="ltr" writing-mode="lr-tb" unicode-bidi="normal" text-decoration="none" transform="matrix(1 0 0 1 1022.61 901)">5</text><path d="M1319.5 782.501C1319.5 760.961 1336.96 743.5 1358.5 743.5L1539.5 743.5C1561.04 743.5 1578.5 760.961 1578.5 782.501L1578.5 938.499C1578.5 960.039 1561.04 977.5 1539.5 977.5L1358.5 977.5C1336.96 977.5 1319.5 960.039 1319.5 938.499Z" stroke="#BC7D2C" stroke-width="9.16667" stroke-linecap="butt" stroke-linejoin="round" stroke-miterlimit="10" stroke-opacity="1" fill="#FFAB40" fill-rule="evenodd" fill-opacity="1"/><text fill="#FFFFFF" fill-opacity="1" font-family="Arial,Arial_MSFontService,sans-serif" font-style="normal" font-variant="normal" font-weight="400" font-stretch="normal" font-size="110" text-anchor="start" direction="ltr" writing-mode="lr-tb" unicode-bidi="normal" text-decoration="none" transform="matrix(1 0 0 1 1417.92 901)">9</text><path d="M1728.5 782.501C1728.5 760.961 1745.96 743.5 1767.5 743.5L1948.5 743.5C1970.04 743.5 1987.5 760.961 1987.5 782.501L1987.5 938.499C1987.5 960.039 1970.04 977.5 1948.5 977.5L1767.5 977.5C1745.96 977.5 1728.5 960.039 1728.5 938.499Z" stroke="#BC7D2C" stroke-width="9.16667" stroke-linecap="butt" stroke-linejoin="round" stroke-miterlimit="10" stroke-opacity="1" fill="#FFAB40" fill-rule="evenodd" fill-opacity="1"/><text fill="#FFFFFF" fill-opacity="1" font-family="Arial,Arial_MSFontService,sans-serif" font-style="normal" font-variant="normal" font-weight="400" font-stretch="normal" font-size="110" text-anchor="start" direction="ltr" writing-mode="lr-tb" unicode-bidi="normal" text-decoration="none" transform="matrix(1 0 0 1 1826.98 901)">3</text><path d="M2124.5 782.501C2124.5 760.961 2141.96 743.5 2163.5 743.5L2343.5 743.5C2365.04 743.5 2382.5 760.961 2382.5 782.501L2382.5 938.499C2382.5 960.039 2365.04 977.5 2343.5 977.5L2163.5 977.5C2141.96 977.5 2124.5 960.039 2124.5 938.499Z" stroke="#BC7D2C" stroke-width="9.16667" stroke-linecap="butt" stroke-linejoin="round" stroke-miterlimit="10" stroke-opacity="1" fill="#FFAB40" fill-rule="evenodd" fill-opacity="1"/><text fill="#FFFFFF" fill-opacity="1" font-family="Arial,Arial_MSFontService,sans-serif" font-style="normal" font-variant="normal" font-weight="400" font-stretch="normal" font-size="110" text-anchor="start" direction="ltr" writing-mode="lr-tb" unicode-bidi="normal" text-decoration="none" transform="matrix(1 0 0 1 2222.3 901)">1</text><rect x="1291.5" y="709.5" width="315" height="302" stroke="#C00000" stroke-width="9.16667" stroke-linecap="butt" stroke-linejoin="round" stroke-miterlimit="10" stroke-opacity="1" fill="none"/><g clip-path="url(#clip1)"><g clip-path="url(#clip2)"><g clip-path="url(#clip3)"><path d="M1777.63 644.669 1775.8 610.62C1775.49 606.208 1778.93 602.641 1782.98 602.358 1787.39 602.049 1790.95 605.494 1791.24 609.539L1794.33 661.603C1794.46 663.442 1794.02 665.135 1792.83 666.512 1792.65 666.708 1792.48 666.905 1792.31 667.102 1792.14 667.299 1791.97 667.495 1791.63 667.889L1791.29 668.282 1790.94 668.676C1789.89 669.488 1788.45 669.959 1787.15 669.865L1735.08 672.957C1730.67 673.266 1727.11 669.82 1726.82 665.776 1726.51 661.364 1729.96 657.797 1734 657.514L1766.02 655.642C1735.36 616.222 1694.6 598.755 1644.73 604.095 1620.17 606.923 1596.29 614.137 1574.19 625.661 1570.27 627.782 1565.56 626.449 1563.64 622.705 1561.52 618.789 1562.85 614.077 1566.59 612.152 1590.28 599.594 1616.15 591.686 1642.91 588.704 1681.22 584.359 1735.25 590.921 1777.63 644.669Z" fill="#C00000" fill-rule="nonzero" fill-opacity="1"/></g></g></g><text fill="#C00000" fill-opacity="1" font-family="Arial,Arial_MSFontService,sans-serif" font-style="normal" font-variant="normal" font-weight="400" font-stretch="normal" font-size="92" text-anchor="start" direction="ltr" writing-mode="lr-tb" unicode-bidi="normal" text-decoration="none" transform="matrix(1 0 0 1 1644.41 551)">&gt; ?</text></g></svg>