<svg width="1471" height="316" xmlns="http://www.w3.org/2000/svg" xmlns:xlink="http://www.w3.org/1999/xlink" xml:space="preserve" overflow="hidden"><defs><clipPath id="clip0"><rect x="916" y="701" width="1471" height="316"/></clipPath></defs><g clip-path="url(#clip0)" transform="translate(-916 -701)"><path d="M924.5 782.501C924.5 760.961 941.961 743.5 963.501 743.5L1144.5 743.5C1166.04 743.5 1183.5 760.961 1183.5 782.501L1183.5 938.499C1183.5 960.039 1166.04 977.5 1144.5 977.5L963.501 977.5C941.961 977.5 924.5 960.039 924.5 938.499Z" stroke="#BC7D2C" stroke-width="9.16667" stroke-linecap="butt" stroke-linejoin="round" stroke-miterlimit="10" stroke-opacity="1" fill="#FFAB40" fill-rule="evenodd" fill-opacity="1"/><text fill="#FFFFFF" fill-opacity="1" font-family="Arial,Arial_MSFontService,sans-serif" font-style="normal" font-variant="normal" font-weight="400" font-stretch="normal" font-size="110" text-anchor="start" direction="ltr" writing-mode="lr-tb" unicode-bidi="normal" text-decoration="none" transform="matrix(1 0 0 1 1022.61 901)">5</text><path d="M1737.5 782.501C1737.5 760.961 1754.96 743.5 1776.5 743.5L1956.5 743.5C1978.04 743.5 1995.5 760.961 1995.5 782.501L1995.5 938.499C1995.5 960.039 1978.04 977.5 1956.5 977.5L1776.5 977.5C1754.96 977.5 1737.5 960.039 1737.5 938.499Z" stroke="#BC7D2C" stroke-width="9.16667" stroke-linecap="butt" stroke-linejoin="round" stroke-miterlimit="10" stroke-opacity="1" fill="#FFAB40" fill-rule="evenodd" fill-opacity="1"/><text fill="#0070C0" fill-opacity="1" font-family="Arial,Arial_MSFontService,sans-serif" font-style="normal" font-variant="normal" font-weight="400" font-stretch="normal" font-size="110" text-anchor="start" direction="ltr" writing-mode="lr-tb" unicode-bidi="normal" text-decoration="none" transform="matrix(1 0 0 1 1835.52 901)">9</text><path d="M1319.5 782.501C1319.5 760.961 1336.96 743.5 1358.5 743.5L1539.5 743.5C1561.04 743.5 1578.5 760.961 1578.5 782.501L1578.5 938.499C1578.5 960.039 1561.04 977.5 1539.5 977.5L1358.5 977.5C1336.96 977.5 1319.5 960.039 1319.5 938.499Z" stroke="#BC7D2C" stroke-width="9.16667" stroke-linecap="butt" stroke-linejoin="round" stroke-miterlimit="10" stroke-opacity="1" fill="#FFAB40" fill-rule="evenodd" fill-opacity="1"/><text fill="#0070C0" fill-opacity="1" font-family="Arial,Arial_MSFontService,sans-serif" font-style="normal" font-variant="normal" font-weight="400" font-stretch="normal" font-size="110" text-anchor="start" direction="ltr" writing-mode="lr-tb" unicode-bidi="normal" text-decoration="none" transform="matrix(1 0 0 1 1417.92 901)">3</text><path d="M2124.5 782.501C2124.5 760.961 2141.96 743.5 2163.5 743.5L2343.5 743.5C2365.04 743.5 2382.5 760.961 2382.5 782.501L2382.5 938.499C2382.5 960.039 2365.04 977.5 2343.5 977.5L2163.5 977.5C2141.96 977.5 2124.5 960.039 2124.5 938.499Z" stroke="#BC7D2C" stroke-width="9.16667" stroke-linecap="butt" stroke-linejoin="round" stroke-miterlimit="10" stroke-opacity="1" fill="#FFAB40" fill-rule="evenodd" fill-opacity="1"/><text fill="#FFFFFF" fill-opacity="1" font-family="Arial,Arial_MSFontService,sans-serif" font-style="normal" font-variant="normal" font-weight="400" font-stretch="normal" font-size="110" text-anchor="start" direction="ltr" writing-mode="lr-tb" unicode-bidi="normal" text-decoration="none" transform="matrix(1 0 0 1 2222.3 901)">1</text><rect x="1291.5" y="709.5" width="315" height="302" stroke="#C00000" stroke-width="9.16667" stroke-linecap="butt" stroke-linejoin="round" stroke-miterlimit="10" stroke-opacity="1" fill="none"/></g></svg>