<svg width="1114" height="729" xmlns="http://www.w3.org/2000/svg" xmlns:xlink="http://www.w3.org/1999/xlink" xml:space="preserve" overflow="hidden"><defs><clipPath id="clip0"><rect x="1471" y="710" width="1114" height="729"/></clipPath><clipPath id="clip1"><rect x="1710" y="1193" width="168" height="167"/></clipPath><clipPath id="clip2"><rect x="1710" y="1193" width="168" height="167"/></clipPath><clipPath id="clip3"><rect x="1710" y="1193" width="168" height="167"/></clipPath></defs><g clip-path="url(#clip0)" transform="translate(-1471 -710)"><path d="M2061.5 756.667C2061.5 735.036 2079.04 717.5 2100.67 717.5L2305.33 717.5C2326.96 717.5 2344.5 735.036 2344.5 756.667L2344.5 913.333C2344.5 934.964 2326.96 952.5 2305.33 952.5L2100.67 952.5C2079.04 952.5 2061.5 934.964 2061.5 913.333Z" stroke="#BC7D2C" stroke-width="9.16667" stroke-linecap="butt" stroke-linejoin="round" stroke-miterlimit="10" stroke-opacity="1" fill="#FFAB40" fill-rule="evenodd" fill-opacity="1"/><text fill="#FFFFFF" fill-opacity="1" font-family="Arial,Arial_MSFontService,sans-serif" font-style="normal" font-variant="normal" font-weight="400" font-stretch="normal" font-size="110" text-anchor="start" direction="ltr" writing-mode="lr-tb" unicode-bidi="normal" text-decoration="none" transform="matrix(1 0 0 1 2141.14 875)">10<tspan fill="#404040" fill-opacity="1" font-family="Arial,Arial_MSFontService,sans-serif" font-style="normal" font-variant="normal" font-weight="400" font-stretch="normal" font-size="110" text-anchor="start" direction="ltr" writing-mode="lr-tb" unicode-bidi="normal" text-decoration="none" x="-189.176" y="-15">a</tspan></text><path d="M1650.5 1203.67C1650.5 1182.04 1668.04 1164.5 1689.67 1164.5L1895.33 1164.5C1916.96 1164.5 1934.5 1182.04 1934.5 1203.67L1934.5 1360.33C1934.5 1381.96 1916.96 1399.5 1895.33 1399.5L1689.67 1399.5C1668.04 1399.5 1650.5 1381.96 1650.5 1360.33Z" stroke="#BC7D2C" stroke-width="9.16667" stroke-linecap="butt" stroke-linejoin="round" stroke-miterlimit="10" stroke-opacity="1" fill="#FFAB40" fill-rule="evenodd" fill-opacity="1"/><text fill="#FFFFFF" fill-opacity="1" font-family="Arial,Arial_MSFontService,sans-serif" font-style="normal" font-variant="normal" font-weight="400" font-stretch="normal" font-size="110" text-anchor="start" direction="ltr" writing-mode="lr-tb" unicode-bidi="normal" text-decoration="none" transform="matrix(1 0 0 1 1730.48 1322)">10<tspan fill="#404040" fill-opacity="1" font-family="Arial,Arial_MSFontService,sans-serif" font-style="normal" font-variant="normal" font-weight="400" font-stretch="normal" font-size="110" text-anchor="start" direction="ltr" writing-mode="lr-tb" unicode-bidi="normal" text-decoration="none" x="-189.176" y="-15">a</tspan></text><path d="M1.50337e-05-10.3125 195.995-10.3122 195.994 10.3128-1.50337e-05 10.3125ZM185.682-30.9372 247.557 0.000360892 185.682 30.9378Z" fill="#FF0000" fill-rule="nonzero" fill-opacity="1" transform="matrix(-1 0 0 1 2133.06 1284.5)"/><path d="M2212.81 1011.5 2212.81 1150.92 2192.19 1150.92 2192.19 1011.5ZM2233.44 1140.6 2202.5 1202.48 2171.56 1140.6Z" fill="#FF0000" fill-rule="nonzero" fill-opacity="1"/><text fill="#404040" fill-opacity="1" font-family="Arial,Arial_MSFontService,sans-serif" font-style="normal" font-variant="normal" font-weight="400" font-stretch="normal" font-size="128" text-anchor="start" direction="ltr" writing-mode="lr-tb" unicode-bidi="normal" text-decoration="none" transform="matrix(1 0 0 1 2144.47 1328)">10 + 1</text><g clip-path="url(#clip1)"><g clip-path="url(#clip2)"><g clip-path="url(#clip3)"><path d="M145.081 36.7051 130.295 21.9187 83.4999 68.7134 36.7051 21.9187 21.9187 36.7051 68.7134 83.4999 21.9187 130.295 36.7051 145.081 83.4999 98.2863 130.295 145.081 145.081 130.295 98.2863 83.4999Z" fill="#FF0000" fill-rule="nonzero" fill-opacity="0.6" transform="matrix(1 0 0 1 1711 1193)"/></g></g></g></g></svg>