<svg width="1494" height="257" xmlns="http://www.w3.org/2000/svg" xmlns:xlink="http://www.w3.org/1999/xlink" xml:space="preserve" overflow="hidden"><defs><clipPath id="clip0"><rect x="948" y="737" width="1494" height="257"/></clipPath></defs><g clip-path="url(#clip0)" transform="translate(-948 -737)"><path d="M1761.5 782.501C1761.5 760.961 1778.96 743.5 1800.5 743.5L1981.5 743.5C2003.04 743.5 2020.5 760.961 2020.5 782.501L2020.5 938.499C2020.5 960.039 2003.04 977.5 1981.5 977.5L1800.5 977.5C1778.96 977.5 1761.5 960.039 1761.5 938.499Z" stroke="#BC7D2C" stroke-width="9.16667" stroke-linecap="butt" stroke-linejoin="round" stroke-miterlimit="10" stroke-opacity="1" fill="#FFAB40" fill-rule="evenodd" fill-opacity="1"/><text fill="#FFFFFF" fill-opacity="1" font-family="Arial,Arial_MSFontService,sans-serif" font-style="normal" font-variant="normal" font-weight="400" font-stretch="normal" font-size="110" text-anchor="start" direction="ltr" writing-mode="lr-tb" unicode-bidi="normal" text-decoration="none" transform="matrix(1 0 0 1 1859.68 901)">5</text><path d="M2178.5 782.501C2178.5 760.961 2195.96 743.5 2217.5 743.5L2398.5 743.5C2420.04 743.5 2437.5 760.961 2437.5 782.501L2437.5 938.499C2437.5 960.039 2420.04 977.5 2398.5 977.5L2217.5 977.5C2195.96 977.5 2178.5 960.039 2178.5 938.499Z" stroke="#BC7D2C" stroke-width="9.16667" stroke-linecap="butt" stroke-linejoin="round" stroke-miterlimit="10" stroke-opacity="1" fill="#FFAB40" fill-rule="evenodd" fill-opacity="1"/><text fill="#FFFFFF" fill-opacity="1" font-family="Arial,Arial_MSFontService,sans-serif" font-style="normal" font-variant="normal" font-weight="400" font-stretch="normal" font-size="110" text-anchor="start" direction="ltr" writing-mode="lr-tb" unicode-bidi="normal" text-decoration="none" transform="matrix(1 0 0 1 2276.89 901)">9</text><path d="M1344.5 782.501C1344.5 760.961 1361.96 743.5 1383.5 743.5L1563.5 743.5C1585.04 743.5 1602.5 760.961 1602.5 782.501L1602.5 938.5C1602.5 960.039 1585.04 977.5 1563.5 977.5L1383.5 977.5C1361.96 977.5 1344.5 960.039 1344.5 938.5Z" stroke="#BC7D2C" stroke-width="9.16667" stroke-linecap="butt" stroke-linejoin="round" stroke-miterlimit="10" stroke-opacity="1" fill="#FFAB40" fill-rule="evenodd" fill-opacity="1"/><text fill="#FFFFFF" fill-opacity="1" font-family="Arial,Arial_MSFontService,sans-serif" font-style="normal" font-variant="normal" font-weight="400" font-stretch="normal" font-size="110" text-anchor="start" direction="ltr" writing-mode="lr-tb" unicode-bidi="normal" text-decoration="none" transform="matrix(1 0 0 1 1442.46 901)">3</text><path d="M955.5 784.501C955.5 762.961 972.961 745.5 994.501 745.5L1175.5 745.5C1197.04 745.5 1214.5 762.961 1214.5 784.501L1214.5 940.499C1214.5 962.039 1197.04 979.5 1175.5 979.5L994.501 979.5C972.961 979.5 955.5 962.039 955.5 940.499Z" stroke="#BC7D2C" stroke-width="9.16667" stroke-linecap="butt" stroke-linejoin="round" stroke-miterlimit="10" stroke-opacity="1" fill="#FFAB40" fill-rule="evenodd" fill-opacity="1"/><text fill="#FFFFFF" fill-opacity="1" font-family="Arial,Arial_MSFontService,sans-serif" font-style="normal" font-variant="normal" font-weight="400" font-stretch="normal" font-size="110" text-anchor="start" direction="ltr" writing-mode="lr-tb" unicode-bidi="normal" text-decoration="none" transform="matrix(1 0 0 1 1053.8 903)">1</text></g></svg>