<svg width="1526" height="564" xmlns="http://www.w3.org/2000/svg" xmlns:xlink="http://www.w3.org/1999/xlink" xml:space="preserve" overflow="hidden"><defs><clipPath id="clip0"><rect x="889" y="453" width="1526" height="564"/></clipPath><clipPath id="clip1"><path d="M1451.59 636.757 1287.47 825.599 1098.63 661.473 1262.75 472.631Z" fill-rule="nonzero" clip-rule="nonzero"/></clipPath><clipPath id="clip2"><path d="M1451.59 636.757 1287.47 825.599 1098.63 661.473 1262.75 472.631Z" fill-rule="evenodd" clip-rule="evenodd"/></clipPath><clipPath id="clip3"><path d="M1451.59 636.757 1287.47 825.599 1098.63 661.473 1262.75 472.631Z" fill-rule="evenodd" clip-rule="evenodd"/></clipPath></defs><g clip-path="url(#clip0)" transform="translate(-889 -453)"><path d="M924.5 782.501C924.5 760.961 941.961 743.5 963.501 743.5L1144.5 743.5C1166.04 743.5 1183.5 760.961 1183.5 782.501L1183.5 938.499C1183.5 960.039 1166.04 977.5 1144.5 977.5L963.501 977.5C941.961 977.5 924.5 960.039 924.5 938.499Z" stroke="#BC7D2C" stroke-width="9.16667" stroke-linecap="butt" stroke-linejoin="round" stroke-miterlimit="10" stroke-opacity="1" fill="#FFAB40" fill-rule="evenodd" fill-opacity="1"/><text fill="#FFFFFF" fill-opacity="1" font-family="Arial,Arial_MSFontService,sans-serif" font-style="normal" font-variant="normal" font-weight="400" font-stretch="normal" font-size="110" text-anchor="start" direction="ltr" writing-mode="lr-tb" unicode-bidi="normal" text-decoration="none" transform="matrix(1 0 0 1 1022.61 901)">5</text><path d="M2150.5 782.501C2150.5 760.961 2167.96 743.5 2189.5 743.5L2369.5 743.5C2391.04 743.5 2408.5 760.961 2408.5 782.501L2408.5 938.5C2408.5 960.039 2391.04 977.5 2369.5 977.5L2189.5 977.5C2167.96 977.5 2150.5 960.039 2150.5 938.5Z" stroke="#BC7D2C" stroke-width="9.16667" stroke-linecap="butt" stroke-linejoin="round" stroke-miterlimit="10" stroke-opacity="1" fill="#FFAB40" fill-rule="evenodd" fill-opacity="1"/><text fill="#FFFFFF" fill-opacity="1" font-family="Arial,Arial_MSFontService,sans-serif" font-style="normal" font-variant="normal" font-weight="400" font-stretch="normal" font-size="110" text-anchor="start" direction="ltr" writing-mode="lr-tb" unicode-bidi="normal" text-decoration="none" transform="matrix(1 0 0 1 2248.58 901)">9</text><path d="M1319.5 782.501C1319.5 760.961 1336.96 743.5 1358.5 743.5L1539.5 743.5C1561.04 743.5 1578.5 760.961 1578.5 782.501L1578.5 938.499C1578.5 960.039 1561.04 977.5 1539.5 977.5L1358.5 977.5C1336.96 977.5 1319.5 960.039 1319.5 938.499Z" stroke="#BC7D2C" stroke-width="9.16667" stroke-linecap="butt" stroke-linejoin="round" stroke-miterlimit="10" stroke-opacity="1" fill="#FFAB40" fill-rule="evenodd" fill-opacity="1"/><text fill="#FFFFFF" fill-opacity="1" font-family="Arial,Arial_MSFontService,sans-serif" font-style="normal" font-variant="normal" font-weight="400" font-stretch="normal" font-size="110" text-anchor="start" direction="ltr" writing-mode="lr-tb" unicode-bidi="normal" text-decoration="none" transform="matrix(1 0 0 1 1417.92 901)">3</text><path d="M1735.5 782.501C1735.5 760.961 1752.96 743.5 1774.5 743.5L1955.5 743.5C1977.04 743.5 1994.5 760.961 1994.5 782.501L1994.5 938.499C1994.5 960.039 1977.04 977.5 1955.5 977.5L1774.5 977.5C1752.96 977.5 1735.5 960.039 1735.5 938.499Z" stroke="#BC7D2C" stroke-width="9.16667" stroke-linecap="butt" stroke-linejoin="round" stroke-miterlimit="10" stroke-opacity="1" fill="#FFAB40" fill-rule="evenodd" fill-opacity="1"/><text fill="#FFFFFF" fill-opacity="1" font-family="Arial,Arial_MSFontService,sans-serif" font-style="normal" font-variant="normal" font-weight="400" font-stretch="normal" font-size="110" text-anchor="start" direction="ltr" writing-mode="lr-tb" unicode-bidi="normal" text-decoration="none" transform="matrix(1 0 0 1 1833.77 901)">1</text><rect x="895.5" y="709.5" width="316" height="302" stroke="#C00000" stroke-width="9.16667" stroke-linecap="butt" stroke-linejoin="round" stroke-miterlimit="10" stroke-opacity="1" fill="none"/><g clip-path="url(#clip1)"><g clip-path="url(#clip2)"><g clip-path="url(#clip3)"><path d="M1362.11 667.408 1360.28 633.36C1359.97 628.948 1363.42 625.381 1367.46 625.098 1371.87 624.789 1375.44 628.234 1375.72 632.278L1378.81 684.343C1378.94 686.181 1378.51 687.875 1377.31 689.252 1377.14 689.448 1376.97 689.645 1376.8 689.842 1376.63 690.038 1376.46 690.235 1376.11 690.629L1375.77 691.022 1375.43 691.415C1374.38 692.228 1372.93 692.699 1371.63 692.605L1319.57 695.696C1315.16 696.005 1311.59 692.56 1311.31 688.516 1311 684.104 1314.44 680.537 1318.49 680.254L1350.5 678.382C1319.85 638.962 1279.09 621.495 1229.21 626.835 1204.66 629.663 1180.78 636.877 1158.68 648.4 1154.76 650.522 1150.05 649.189 1148.12 645.445 1146 641.529 1147.33 636.817 1151.08 634.892 1174.77 622.334 1200.63 614.426 1227.4 611.444 1265.7 607.099 1319.74 613.661 1362.11 667.408Z" fill="#C00000" fill-rule="nonzero" fill-opacity="1"/></g></g></g><text fill="#C00000" fill-opacity="1" font-family="Arial,Arial_MSFontService,sans-serif" font-style="normal" font-variant="normal" font-weight="400" font-stretch="normal" font-size="92" text-anchor="start" direction="ltr" writing-mode="lr-tb" unicode-bidi="normal" text-decoration="none" transform="matrix(1 0 0 1 1228.9 574)">&gt; ?</text></g></svg>