<svg width="1150" height="816" xmlns="http://www.w3.org/2000/svg" xmlns:xlink="http://www.w3.org/1999/xlink" xml:space="preserve" overflow="hidden"><defs><clipPath id="clip0"><rect x="2067" y="678" width="1150" height="816"/></clipPath></defs><g clip-path="url(#clip0)" transform="translate(-2067 -678)"><path d="M2075.5 1294 2091 1278.5 2091 1286.25 2968 1286.25 2968 1278.5 2983.5 1294 2968 1309.5 2968 1301.75 2091 1301.75 2091 1309.5Z" stroke="#7030A0" stroke-width="9.16667" stroke-linecap="butt" stroke-linejoin="round" stroke-miterlimit="10" stroke-opacity="1" fill="#7030A0" fill-rule="evenodd" fill-opacity="1"/><text fill="#7030A0" fill-opacity="1" font-family="Arial,Arial_MSFontService,sans-serif" font-style="normal" font-variant="normal" font-weight="700" font-stretch="normal" font-size="92" text-anchor="start" direction="ltr" writing-mode="lr-tb" unicode-bidi="normal" text-decoration="none" transform="matrix(1 0 0 1 2493.23 1414)">w</text><path d="M3060.5 1230.5 3043.5 1213.5 3052 1213.5 3052 742.5 3043.5 742.5 3060.5 725.5 3077.5 742.5 3069 742.5 3069 1213.5 3077.5 1213.5Z" stroke="#7030A0" stroke-width="9.16667" stroke-linecap="butt" stroke-linejoin="round" stroke-miterlimit="10" stroke-opacity="1" fill="#7030A0" fill-rule="evenodd" fill-opacity="1"/><text fill="#7030A0" fill-opacity="1" font-family="Arial,Arial_MSFontService,sans-serif" font-style="normal" font-variant="normal" font-weight="700" font-stretch="normal" font-size="92" text-anchor="start" direction="ltr" writing-mode="lr-tb" unicode-bidi="normal" text-decoration="none" transform="matrix(1 0 0 1 3105.56 990)">h</text><path d="M2075.5 1230.5 2529.5 685.5 2983.5 1230.5Z" stroke="#BC7D2C" stroke-width="9.16667" stroke-linecap="butt" stroke-linejoin="round" stroke-miterlimit="10" stroke-opacity="1" fill="#FFAB40" fill-rule="evenodd" fill-opacity="1"/></g></svg>