<svg width="1499" height="596" xmlns="http://www.w3.org/2000/svg" xmlns:xlink="http://www.w3.org/1999/xlink" xml:space="preserve" overflow="hidden"><defs><clipPath id="clip0"><rect x="916" y="421" width="1499" height="596"/></clipPath><clipPath id="clip1"><path d="M1866.4 605.117 1702.28 793.959 1513.43 629.833 1677.56 440.991Z" fill-rule="nonzero" clip-rule="nonzero"/></clipPath><clipPath id="clip2"><path d="M1866.4 605.117 1702.28 793.959 1513.43 629.833 1677.56 440.991Z" fill-rule="evenodd" clip-rule="evenodd"/></clipPath><clipPath id="clip3"><path d="M1866.4 605.117 1702.28 793.959 1513.43 629.833 1677.56 440.991Z" fill-rule="evenodd" clip-rule="evenodd"/></clipPath></defs><g clip-path="url(#clip0)" transform="translate(-916 -421)"><path d="M1344.5 782.501C1344.5 760.961 1361.96 743.5 1383.5 743.5L1563.5 743.5C1585.04 743.5 1602.5 760.961 1602.5 782.501L1602.5 938.5C1602.5 960.039 1585.04 977.5 1563.5 977.5L1383.5 977.5C1361.96 977.5 1344.5 960.039 1344.5 938.5Z" stroke="#BC7D2C" stroke-width="9.16667" stroke-linecap="butt" stroke-linejoin="round" stroke-miterlimit="10" stroke-opacity="1" fill="#FFAB40" fill-rule="evenodd" fill-opacity="1"/><text fill="#FFFFFF" fill-opacity="1" font-family="Arial,Arial_MSFontService,sans-serif" font-style="normal" font-variant="normal" font-weight="400" font-stretch="normal" font-size="110" text-anchor="start" direction="ltr" writing-mode="lr-tb" unicode-bidi="normal" text-decoration="none" transform="matrix(1 0 0 1 1442.46 901)">5</text><path d="M2150.5 782.501C2150.5 760.961 2167.96 743.5 2189.5 743.5L2369.5 743.5C2391.04 743.5 2408.5 760.961 2408.5 782.501L2408.5 938.5C2408.5 960.039 2391.04 977.5 2369.5 977.5L2189.5 977.5C2167.96 977.5 2150.5 960.039 2150.5 938.5Z" stroke="#BC7D2C" stroke-width="9.16667" stroke-linecap="butt" stroke-linejoin="round" stroke-miterlimit="10" stroke-opacity="1" fill="#FFAB40" fill-rule="evenodd" fill-opacity="1"/><text fill="#FFFFFF" fill-opacity="1" font-family="Arial,Arial_MSFontService,sans-serif" font-style="normal" font-variant="normal" font-weight="400" font-stretch="normal" font-size="110" text-anchor="start" direction="ltr" writing-mode="lr-tb" unicode-bidi="normal" text-decoration="none" transform="matrix(1 0 0 1 2248.58 901)">9</text><path d="M924.5 782.501C924.5 760.961 941.961 743.5 963.501 743.5L1143.5 743.5C1165.04 743.5 1182.5 760.961 1182.5 782.501L1182.5 938.5C1182.5 960.039 1165.04 977.5 1143.5 977.5L963.501 977.5C941.961 977.5 924.5 960.039 924.5 938.5Z" stroke="#BC7D2C" stroke-width="9.16667" stroke-linecap="butt" stroke-linejoin="round" stroke-miterlimit="10" stroke-opacity="1" fill="#FFAB40" fill-rule="evenodd" fill-opacity="1"/><text fill="#FFFFFF" fill-opacity="1" font-family="Arial,Arial_MSFontService,sans-serif" font-style="normal" font-variant="normal" font-weight="400" font-stretch="normal" font-size="110" text-anchor="start" direction="ltr" writing-mode="lr-tb" unicode-bidi="normal" text-decoration="none" transform="matrix(1 0 0 1 1022.61 901)">3</text><path d="M1735.5 782.501C1735.5 760.961 1752.96 743.5 1774.5 743.5L1955.5 743.5C1977.04 743.5 1994.5 760.961 1994.5 782.501L1994.5 938.499C1994.5 960.039 1977.04 977.5 1955.5 977.5L1774.5 977.5C1752.96 977.5 1735.5 960.039 1735.5 938.499Z" stroke="#BC7D2C" stroke-width="9.16667" stroke-linecap="butt" stroke-linejoin="round" stroke-miterlimit="10" stroke-opacity="1" fill="#FFAB40" fill-rule="evenodd" fill-opacity="1"/><text fill="#FFFFFF" fill-opacity="1" font-family="Arial,Arial_MSFontService,sans-serif" font-style="normal" font-variant="normal" font-weight="400" font-stretch="normal" font-size="110" text-anchor="start" direction="ltr" writing-mode="lr-tb" unicode-bidi="normal" text-decoration="none" transform="matrix(1 0 0 1 1833.77 901)">1</text><rect x="1315.5" y="709.5" width="316" height="302" stroke="#C00000" stroke-width="9.16667" stroke-linecap="butt" stroke-linejoin="round" stroke-miterlimit="10" stroke-opacity="1" fill="none"/><g clip-path="url(#clip1)"><g clip-path="url(#clip2)"><g clip-path="url(#clip3)"><path d="M1776.92 635.769 1775.09 601.72C1774.78 597.308 1778.22 593.741 1782.27 593.458 1786.68 593.149 1790.25 596.594 1790.53 600.639L1793.62 652.703C1793.75 654.542 1793.31 656.235 1792.12 657.612 1791.95 657.809 1791.78 658.005 1791.6 658.202 1791.43 658.399 1791.26 658.595 1790.92 658.989L1790.58 659.382 1790.24 659.776C1789.19 660.588 1787.74 661.059 1786.44 660.965L1734.38 664.057C1729.96 664.366 1726.4 660.921 1726.11 656.876 1725.81 652.464 1729.25 648.898 1733.29 648.614L1765.31 646.742C1734.65 607.322 1693.9 589.855 1644.02 595.195 1619.46 598.023 1595.58 605.237 1573.48 616.761 1569.57 618.882 1564.85 617.549 1562.93 613.805 1560.81 609.889 1562.14 605.177 1565.89 603.252 1589.58 590.694 1615.44 582.786 1642.2 579.804 1680.51 575.459 1734.54 582.021 1776.92 635.769Z" fill="#C00000" fill-rule="nonzero" fill-opacity="1"/></g></g></g><text fill="#C00000" fill-opacity="1" font-family="Arial,Arial_MSFontService,sans-serif" font-style="normal" font-variant="normal" font-weight="400" font-stretch="normal" font-size="92" text-anchor="start" direction="ltr" writing-mode="lr-tb" unicode-bidi="normal" text-decoration="none" transform="matrix(1 0 0 1 1643.7 542)">&gt; ?</text></g></svg>