<svg width="926" height="275" xmlns="http://www.w3.org/2000/svg" xmlns:xlink="http://www.w3.org/1999/xlink" xml:space="preserve" overflow="hidden"><defs><clipPath id="clip0"><rect x="1471" y="453" width="926" height="275"/></clipPath></defs><g clip-path="url(#clip0)" transform="translate(-1471 -453)"><path d="M1650.5 497.501C1650.5 475.961 1667.96 458.5 1689.5 458.5L1895.5 458.5C1917.04 458.5 1934.5 475.961 1934.5 497.501L1934.5 653.499C1934.5 675.039 1917.04 692.5 1895.5 692.5L1689.5 692.5C1667.96 692.5 1650.5 675.039 1650.5 653.499Z" stroke="#BC7D2C" stroke-width="9.16667" stroke-linecap="butt" stroke-linejoin="round" stroke-miterlimit="10" stroke-opacity="1" fill="#FFAB40" fill-rule="evenodd" fill-opacity="1"/><text fill="#404040" fill-opacity="1" font-family="Arial,Arial_MSFontService,sans-serif" font-style="normal" font-variant="normal" font-weight="400" font-stretch="normal" font-size="110" text-anchor="start" direction="ltr" writing-mode="lr-tb" unicode-bidi="normal" text-decoration="none" transform="matrix(1 0 0 1 1541.3 600)">a<tspan fill="#404040" fill-opacity="1" font-family="Arial,Arial_MSFontService,sans-serif" font-style="normal" font-variant="normal" font-weight="400" font-stretch="normal" font-size="128" text-anchor="start" direction="ltr" writing-mode="lr-tb" unicode-bidi="normal" text-decoration="none" x="634.37" y="22">10</tspan></text><path d="M1.21271e-05-10.3125 255.329-10.3122 255.329 10.3128-1.21271e-05 10.3125ZM245.016-30.9372 306.891 0.000360892 245.016 30.9378Z" fill="#FF0000" fill-rule="nonzero" fill-opacity="1" transform="matrix(-1 0 0 1 2143.39 575.5)"/></g></svg>