<svg width="1938" height="1393" xmlns="http://www.w3.org/2000/svg" xmlns:xlink="http://www.w3.org/1999/xlink" xml:space="preserve" overflow="hidden"><defs><clipPath id="clip0"><rect x="605" y="316" width="1938" height="1393"/></clipPath></defs><g clip-path="url(#clip0)" transform="translate(-605 -316)"><path d="M606 1013.5C606 629.938 1039.39 319 1574 319 2108.61 319 2542 629.938 2542 1013.5 2542 1397.06 2108.61 1708 1574 1708 1039.39 1708 606 1397.06 606 1013.5Z" fill="#FFA105" fill-rule="evenodd" fill-opacity="1"/><path d="M941 879.5C941 660.519 1188.36 483 1493.5 483 1798.64 483 2046 660.519 2046 879.5 2046 1098.48 1798.64 1276 1493.5 1276 1188.36 1276 941 1098.48 941 879.5Z" fill="#7030A0" fill-rule="evenodd" fill-opacity="1"/><path d="M2356.94 1087.78C2353.97 1087.78 2351.47 1088.92 2349.44 1091.19 2347.42 1093.46 2346.41 1096.73 2346.41 1100.99 2346.41 1105.26 2347.42 1108.53 2349.44 1110.8 2351.47 1113.07 2353.97 1114.21 2356.94 1114.21 2359.91 1114.21 2362.41 1113.07 2364.42 1110.8 2366.43 1108.53 2367.44 1105.24 2367.44 1100.91 2367.44 1096.7 2366.43 1093.46 2364.42 1091.19 2362.41 1088.92 2359.91 1087.78 2356.94 1087.78ZM2306.53 1087.78C2303.55 1087.78 2301.05 1088.92 2299.03 1091.19 2297 1093.46 2295.99 1096.73 2295.99 1100.99 2295.99 1105.26 2297 1108.53 2299.03 1110.8 2301.05 1113.07 2303.55 1114.21 2306.53 1114.21 2309.5 1114.21 2311.99 1113.07 2314 1110.8 2316.02 1108.53 2317.02 1105.24 2317.02 1100.91 2317.02 1096.7 2316.02 1093.46 2314 1091.19 2311.99 1088.92 2309.5 1087.78 2306.53 1087.78ZM2408.41 1087.5C2405.63 1087.5 2403.32 1088.57 2401.48 1090.72 2399.65 1092.87 2398.73 1096.05 2398.73 1100.26 2398.73 1105.1 2399.69 1108.67 2401.6 1110.98 2403.52 1113.29 2405.86 1114.45 2408.62 1114.45 2411.26 1114.45 2413.47 1113.39 2415.22 1111.27 2416.98 1109.15 2417.86 1105.67 2417.86 1100.83 2417.86 1096.32 2416.95 1092.97 2415.14 1090.78 2413.33 1088.59 2411.09 1087.5 2408.41 1087.5ZM2212.39 1087.21C2209.9 1087.21 2207.85 1088.12 2206.23 1089.93 2204.61 1091.74 2203.81 1094.2 2203.84 1097.31L2220.86 1097.31C2220.78 1094.01 2219.93 1091.5 2218.3 1089.79 2216.68 1088.07 2214.71 1087.21 2212.39 1087.21ZM2149.45 1079.47 2160.84 1079.47 2160.84 1122.51 2149.45 1122.51ZM2029.27 1079.47 2040.34 1079.47 2048.4 1107.68 2055.82 1079.47 2066.8 1079.47 2073.98 1107.68 2082.2 1079.47 2093.43 1079.47 2079.61 1122.51 2068.67 1122.51 2061.25 1094.83 2053.96 1122.51 2042.89 1122.51ZM2411.49 1078.5C2416.49 1078.5 2420.73 1080.46 2424.22 1084.38 2427.7 1088.3 2429.45 1093.75 2429.45 1100.75 2429.45 1107.94 2427.69 1113.52 2424.18 1117.51 2420.67 1121.49 2416.41 1123.49 2411.41 1123.49 2409.03 1123.49 2406.88 1123.01 2404.95 1122.07 2403.02 1121.12 2400.98 1119.5 2398.85 1117.2L2398.85 1138.89 2387.46 1138.89 2387.46 1079.47 2398.08 1079.47 2398.08 1085.8C2399.46 1083.63 2401.32 1081.88 2403.67 1080.53 2406.02 1079.18 2408.63 1078.5 2411.49 1078.5ZM2356.9 1078.5C2363.41 1078.5 2368.75 1080.62 2372.91 1084.84 2377.07 1089.07 2379.15 1094.42 2379.15 1100.87 2379.15 1107.38 2377.05 1112.78 2372.85 1117.06 2368.65 1121.35 2363.36 1123.49 2356.98 1123.49 2353.04 1123.49 2349.28 1122.6 2345.7 1120.81 2342.12 1119.03 2339.39 1116.41 2337.53 1112.97 2335.67 1109.53 2334.73 1105.33 2334.73 1100.39 2334.73 1096.6 2335.67 1092.94 2337.53 1089.4 2339.39 1085.86 2342.04 1083.16 2345.45 1081.3 2348.87 1079.43 2352.69 1078.5 2356.9 1078.5ZM2306.49 1078.5C2313 1078.5 2318.33 1080.62 2322.49 1084.84 2326.65 1089.07 2328.73 1094.42 2328.73 1100.87 2328.73 1107.38 2326.63 1112.78 2322.43 1117.06 2318.23 1121.35 2312.94 1123.49 2306.57 1123.49 2302.62 1123.49 2298.86 1122.6 2295.28 1120.81 2291.7 1119.03 2288.98 1116.41 2287.11 1112.97 2285.25 1109.53 2284.32 1105.33 2284.32 1100.39 2284.32 1096.6 2285.25 1092.94 2287.11 1089.4 2288.98 1085.86 2291.62 1083.16 2295.04 1081.3 2298.45 1079.43 2302.27 1078.5 2306.49 1078.5ZM2211.7 1078.5C2218.1 1078.5 2223.15 1080.62 2226.86 1084.84 2230.56 1089.07 2232.33 1095.55 2232.16 1104.28L2203.63 1104.28C2203.71 1107.65 2204.63 1110.28 2206.39 1112.16 2208.15 1114.04 2210.33 1114.98 2212.95 1114.98 2214.74 1114.98 2216.24 1114.49 2217.45 1113.52 2218.67 1112.54 2219.59 1110.98 2220.21 1108.82L2231.56 1110.72C2230.1 1114.88 2227.79 1118.05 2224.65 1120.22 2221.5 1122.4 2217.56 1123.49 2212.83 1123.49 2205.35 1123.49 2199.81 1121.04 2196.22 1116.15 2193.38 1112.23 2191.96 1107.29 2191.96 1101.32 2191.96 1094.19 2193.83 1088.6 2197.55 1084.56 2201.28 1080.52 2206 1078.5 2211.7 1078.5ZM2264.03 1063.1 2275.42 1063.1 2275.42 1122.51 2264.03 1122.51ZM2172.37 1063.1 2183.76 1063.1 2183.76 1122.51 2172.37 1122.51ZM2149.45 1063.1 2160.84 1063.1 2160.84 1073.64 2149.45 1073.64ZM2098.99 1063.1 2110.38 1063.1 2110.38 1084.95C2114.06 1080.65 2118.45 1078.5 2123.55 1078.5 2126.17 1078.5 2128.54 1078.99 2130.65 1079.96 2132.75 1080.93 2134.34 1082.18 2135.41 1083.69 2136.47 1085.2 2137.2 1086.88 2137.6 1088.71 2137.99 1090.55 2138.18 1093.4 2138.18 1097.27L2138.18 1122.51 2126.8 1122.51 2126.8 1099.78C2126.8 1095.27 2126.58 1092.4 2126.15 1091.19 2125.71 1089.97 2124.95 1089 2123.86 1088.29 2122.76 1087.57 2121.39 1087.21 2119.74 1087.21 2117.85 1087.21 2116.16 1087.67 2114.68 1088.59 2113.19 1089.51 2112.1 1090.9 2111.42 1092.75 2110.73 1094.6 2110.38 1097.33 2110.38 1100.95L2110.38 1122.51 2098.99 1122.51Z" stroke="#FFFFFF" stroke-width="3" stroke-linecap="butt" stroke-linejoin="round" stroke-miterlimit="10" stroke-opacity="1" fill="#002060" fill-rule="evenodd" fill-opacity="1"/><text fill="#000000" fill-opacity="0" font-family="Arial,Arial_MSFontService,sans-serif" font-size="75.7861" direction="ltr" writing-mode="lr-tb" x="2029.27" y="1129.41">while loop</text><path d="M1403.18 628.559C1400.2 628.559 1397.7 629.694 1395.68 631.963 1393.65 634.233 1392.64 637.502 1392.64 641.771 1392.64 646.04 1393.65 649.309 1395.68 651.578 1397.7 653.848 1400.2 654.983 1403.18 654.983 1406.15 654.983 1408.64 653.848 1410.65 651.578 1412.67 649.309 1413.67 646.013 1413.67 641.69 1413.67 637.475 1412.67 634.233 1410.65 631.963 1408.64 629.694 1406.15 628.559 1403.18 628.559ZM1352.76 628.559C1349.79 628.559 1347.29 629.694 1345.26 631.963 1343.23 634.233 1342.22 637.502 1342.22 641.771 1342.22 646.04 1343.23 649.309 1345.26 651.578 1347.29 653.848 1349.79 654.983 1352.76 654.983 1355.73 654.983 1358.22 653.848 1360.24 651.578 1362.25 649.309 1363.26 646.013 1363.26 641.69 1363.26 637.475 1362.25 634.233 1360.24 631.963 1358.22 629.694 1355.73 628.559 1352.76 628.559ZM1224.43 628.559C1221.45 628.559 1218.95 629.694 1216.93 631.963 1214.9 634.233 1213.89 637.502 1213.89 641.771 1213.89 646.04 1214.9 649.309 1216.93 651.578 1218.95 653.848 1221.45 654.983 1224.43 654.983 1227.4 654.983 1229.89 653.848 1231.9 651.578 1233.92 649.309 1234.92 646.013 1234.92 641.69 1234.92 637.475 1233.92 634.233 1231.9 631.963 1229.89 629.694 1227.4 628.559 1224.43 628.559ZM1454.65 628.275C1451.86 628.275 1449.55 629.349 1447.72 631.497 1445.88 633.645 1444.96 636.826 1444.96 641.041 1444.96 645.878 1445.92 649.451 1447.84 651.761 1449.76 654.071 1452.09 655.226 1454.85 655.226 1457.5 655.226 1459.7 654.165 1461.45 652.044 1463.21 649.924 1464.09 646.445 1464.09 641.609 1464.09 637.097 1463.18 633.746 1461.37 631.558 1459.56 629.369 1457.32 628.275 1454.65 628.275ZM1457.73 619.278C1462.72 619.278 1466.97 621.237 1470.45 625.155 1473.94 629.072 1475.68 634.53 1475.68 641.528 1475.68 648.714 1473.92 654.3 1470.41 658.286 1466.9 662.271 1462.64 664.263 1457.64 664.263 1455.27 664.263 1453.11 663.791 1451.18 662.845 1449.25 661.899 1447.22 660.278 1445.08 657.982L1445.08 679.664 1433.69 679.664 1433.69 620.251 1444.31 620.251 1444.31 626.573C1445.69 624.412 1447.55 622.655 1449.9 621.304 1452.25 619.954 1454.86 619.278 1457.73 619.278ZM1403.13 619.278C1409.65 619.278 1414.98 621.392 1419.14 625.621 1423.3 629.849 1425.38 635.192 1425.38 641.649 1425.38 648.161 1423.28 653.557 1419.08 657.84 1414.88 662.122 1409.59 664.263 1403.22 664.263 1399.27 664.263 1395.51 663.372 1391.93 661.589 1388.35 659.805 1385.63 657.191 1383.76 653.747 1381.9 650.302 1380.97 646.107 1380.97 641.163 1380.97 637.38 1381.9 633.719 1383.76 630.18 1385.63 626.641 1388.27 623.939 1391.69 622.074 1395.1 620.21 1398.92 619.278 1403.13 619.278ZM1352.72 619.278C1359.23 619.278 1364.57 621.392 1368.73 625.621 1372.89 629.849 1374.97 635.192 1374.97 641.649 1374.97 648.161 1372.87 653.557 1368.67 657.84 1364.46 662.122 1359.18 664.263 1352.8 664.263 1348.85 664.263 1345.09 663.372 1341.51 661.589 1337.93 659.805 1335.21 657.191 1333.35 653.747 1331.48 650.302 1330.55 646.107 1330.55 641.163 1330.55 637.38 1331.48 633.719 1333.35 630.18 1335.21 626.641 1337.85 623.939 1341.27 622.074 1344.69 620.21 1348.5 619.278 1352.72 619.278ZM1275.17 619.278C1277.76 619.278 1280.26 619.994 1282.66 621.426L1279.14 631.355C1277.22 630.112 1275.44 629.491 1273.79 629.491 1272.19 629.491 1270.84 629.93 1269.74 630.808 1268.63 631.686 1267.76 633.273 1267.12 635.57 1266.49 637.867 1266.17 642.676 1266.17 649.998L1266.17 663.291 1254.78 663.291 1254.78 620.251 1265.36 620.251 1265.36 626.37C1267.17 623.479 1268.8 621.575 1270.24 620.656 1271.69 619.737 1273.33 619.278 1275.17 619.278ZM1224.38 619.278C1230.9 619.278 1236.23 621.392 1240.39 625.621 1244.55 629.849 1246.63 635.192 1246.63 641.649 1246.63 648.161 1244.53 653.557 1240.33 657.84 1236.13 662.122 1230.84 664.263 1224.47 664.263 1220.52 664.263 1216.76 663.372 1213.18 661.589 1209.6 659.805 1206.88 657.191 1205.01 653.747 1203.15 650.302 1202.22 646.107 1202.22 641.163 1202.22 637.38 1203.15 633.719 1205.01 630.18 1206.88 626.641 1209.52 623.939 1212.94 622.074 1216.35 620.21 1220.17 619.278 1224.38 619.278ZM1310.27 603.878 1321.66 603.878 1321.66 663.291 1310.27 663.291ZM1191.94 602.865C1195.18 602.865 1198.36 603.351 1201.46 604.323L1199.92 612.267C1198.11 611.835 1196.37 611.618 1194.7 611.618 1193.05 611.618 1191.87 612.003 1191.15 612.773 1190.43 613.543 1190.08 615.023 1190.08 617.211L1190.08 620.251 1198.59 620.251 1198.59 629.207 1190.08 629.207 1190.08 663.291 1178.69 663.291 1178.69 629.207 1172.37 629.207 1172.37 620.251 1178.69 620.251 1178.69 617.009C1178.69 613.388 1179.07 610.686 1179.84 608.903 1180.61 607.12 1182.03 605.668 1184.1 604.546 1186.17 603.425 1188.78 602.865 1191.94 602.865Z" stroke="#FFFFFF" stroke-width="3" stroke-linecap="butt" stroke-linejoin="round" stroke-miterlimit="10" stroke-opacity="1" fill="#002060" fill-rule="evenodd" fill-opacity="1"/><text fill="#000000" fill-opacity="0" font-family="Arial,Arial_MSFontService,sans-serif" font-size="76.7993" direction="ltr" writing-mode="lr-tb" x="1172.37" y="670.064">for loop</text></g></svg>