<svg width="1498" height="550" xmlns="http://www.w3.org/2000/svg" xmlns:xlink="http://www.w3.org/1999/xlink" xml:space="preserve" overflow="hidden"><defs><clipPath id="clip0"><rect x="889" y="467" width="1498" height="550"/></clipPath><clipPath id="clip1"><path d="M1457.48 656.159 1293.36 845.001 1104.52 680.875 1268.64 492.033Z" fill-rule="nonzero" clip-rule="nonzero"/></clipPath><clipPath id="clip2"><path d="M1457.48 656.159 1293.36 845.001 1104.52 680.875 1268.64 492.033Z" fill-rule="evenodd" clip-rule="evenodd"/></clipPath><clipPath id="clip3"><path d="M1457.48 656.159 1293.36 845.001 1104.52 680.875 1268.64 492.033Z" fill-rule="evenodd" clip-rule="evenodd"/></clipPath></defs><g clip-path="url(#clip0)" transform="translate(-889 -467)"><path d="M924.5 782.501C924.5 760.961 941.961 743.5 963.501 743.5L1144.5 743.5C1166.04 743.5 1183.5 760.961 1183.5 782.501L1183.5 938.499C1183.5 960.039 1166.04 977.5 1144.5 977.5L963.501 977.5C941.961 977.5 924.5 960.039 924.5 938.499Z" stroke="#BC7D2C" stroke-width="9.16667" stroke-linecap="butt" stroke-linejoin="round" stroke-miterlimit="10" stroke-opacity="1" fill="#FFAB40" fill-rule="evenodd" fill-opacity="1"/><text fill="#FFFFFF" fill-opacity="1" font-family="Arial,Arial_MSFontService,sans-serif" font-style="normal" font-variant="normal" font-weight="400" font-stretch="normal" font-size="110" text-anchor="start" direction="ltr" writing-mode="lr-tb" unicode-bidi="normal" text-decoration="none" transform="matrix(1 0 0 1 1022.61 901)">5</text><path d="M1319.5 782.501C1319.5 760.961 1336.96 743.5 1358.5 743.5L1539.5 743.5C1561.04 743.5 1578.5 760.961 1578.5 782.501L1578.5 938.499C1578.5 960.039 1561.04 977.5 1539.5 977.5L1358.5 977.5C1336.96 977.5 1319.5 960.039 1319.5 938.499Z" stroke="#BC7D2C" stroke-width="9.16667" stroke-linecap="butt" stroke-linejoin="round" stroke-miterlimit="10" stroke-opacity="1" fill="#FFAB40" fill-rule="evenodd" fill-opacity="1"/><text fill="#FFFFFF" fill-opacity="1" font-family="Arial,Arial_MSFontService,sans-serif" font-style="normal" font-variant="normal" font-weight="400" font-stretch="normal" font-size="110" text-anchor="start" direction="ltr" writing-mode="lr-tb" unicode-bidi="normal" text-decoration="none" transform="matrix(1 0 0 1 1417.92 901)">9</text><path d="M1728.5 782.501C1728.5 760.961 1745.96 743.5 1767.5 743.5L1948.5 743.5C1970.04 743.5 1987.5 760.961 1987.5 782.501L1987.5 938.499C1987.5 960.039 1970.04 977.5 1948.5 977.5L1767.5 977.5C1745.96 977.5 1728.5 960.039 1728.5 938.499Z" stroke="#BC7D2C" stroke-width="9.16667" stroke-linecap="butt" stroke-linejoin="round" stroke-miterlimit="10" stroke-opacity="1" fill="#FFAB40" fill-rule="evenodd" fill-opacity="1"/><text fill="#FFFFFF" fill-opacity="1" font-family="Arial,Arial_MSFontService,sans-serif" font-style="normal" font-variant="normal" font-weight="400" font-stretch="normal" font-size="110" text-anchor="start" direction="ltr" writing-mode="lr-tb" unicode-bidi="normal" text-decoration="none" transform="matrix(1 0 0 1 1826.98 901)">3</text><path d="M2124.5 782.501C2124.5 760.961 2141.96 743.5 2163.5 743.5L2343.5 743.5C2365.04 743.5 2382.5 760.961 2382.5 782.501L2382.5 938.499C2382.5 960.039 2365.04 977.5 2343.5 977.5L2163.5 977.5C2141.96 977.5 2124.5 960.039 2124.5 938.499Z" stroke="#BC7D2C" stroke-width="9.16667" stroke-linecap="butt" stroke-linejoin="round" stroke-miterlimit="10" stroke-opacity="1" fill="#FFAB40" fill-rule="evenodd" fill-opacity="1"/><text fill="#FFFFFF" fill-opacity="1" font-family="Arial,Arial_MSFontService,sans-serif" font-style="normal" font-variant="normal" font-weight="400" font-stretch="normal" font-size="110" text-anchor="start" direction="ltr" writing-mode="lr-tb" unicode-bidi="normal" text-decoration="none" transform="matrix(1 0 0 1 2222.3 901)">1</text><rect x="895.5" y="709.5" width="316" height="302" stroke="#C00000" stroke-width="9.16667" stroke-linecap="butt" stroke-linejoin="round" stroke-miterlimit="10" stroke-opacity="1" fill="none"/><g clip-path="url(#clip1)"><g clip-path="url(#clip2)"><g clip-path="url(#clip3)"><path d="M1368 686.811 1366.17 652.762C1365.86 648.35 1369.31 644.784 1373.35 644.5 1377.76 644.191 1381.33 647.636 1381.61 651.681L1384.7 703.745C1384.83 705.584 1384.4 707.277 1383.2 708.654 1383.03 708.851 1382.86 709.047 1382.69 709.244 1382.52 709.441 1382.35 709.638 1382 710.031L1381.66 710.424 1381.32 710.818C1380.27 711.63 1378.82 712.101 1377.52 712.007L1325.46 715.099C1321.05 715.408 1317.48 711.963 1317.2 707.918 1316.89 703.506 1320.33 699.94 1324.38 699.656L1356.39 697.784C1325.74 658.365 1284.98 640.897 1235.1 646.237 1210.55 649.065 1186.67 656.279 1164.56 667.803 1160.65 669.924 1155.94 668.592 1154.01 664.847 1151.89 660.931 1153.22 656.219 1156.97 654.294 1180.66 641.736 1206.52 633.829 1233.29 630.846 1271.59 626.501 1325.63 633.063 1368 686.811Z" fill="#C00000" fill-rule="nonzero" fill-opacity="1"/></g></g></g><text fill="#C00000" fill-opacity="1" font-family="Arial,Arial_MSFontService,sans-serif" font-style="normal" font-variant="normal" font-weight="400" font-stretch="normal" font-size="92" text-anchor="start" direction="ltr" writing-mode="lr-tb" unicode-bidi="normal" text-decoration="none" transform="matrix(1 0 0 1 1215.5 587)">&gt; ?</text></g></svg>