<svg width="1471" height="555" xmlns="http://www.w3.org/2000/svg" xmlns:xlink="http://www.w3.org/1999/xlink" xml:space="preserve" overflow="hidden"><defs><clipPath id="clip0"><rect x="916" y="462" width="1471" height="555"/></clipPath><clipPath id="clip1"><path d="M2270.84 643.632 2106.71 832.474 1917.87 668.348 2082 479.506Z" fill-rule="nonzero" clip-rule="nonzero"/></clipPath><clipPath id="clip2"><path d="M2270.84 643.632 2106.71 832.474 1917.87 668.348 2082 479.506Z" fill-rule="evenodd" clip-rule="evenodd"/></clipPath><clipPath id="clip3"><path d="M2270.84 643.632 2106.71 832.474 1917.87 668.348 2082 479.506Z" fill-rule="evenodd" clip-rule="evenodd"/></clipPath></defs><g clip-path="url(#clip0)" transform="translate(-916 -462)"><path d="M924.5 782.501C924.5 760.961 941.961 743.5 963.501 743.5L1144.5 743.5C1166.04 743.5 1183.5 760.961 1183.5 782.501L1183.5 938.499C1183.5 960.039 1166.04 977.5 1144.5 977.5L963.501 977.5C941.961 977.5 924.5 960.039 924.5 938.499Z" stroke="#BC7D2C" stroke-width="9.16667" stroke-linecap="butt" stroke-linejoin="round" stroke-miterlimit="10" stroke-opacity="1" fill="#FFAB40" fill-rule="evenodd" fill-opacity="1"/><text fill="#FFFFFF" fill-opacity="1" font-family="Arial,Arial_MSFontService,sans-serif" font-style="normal" font-variant="normal" font-weight="400" font-stretch="normal" font-size="110" text-anchor="start" direction="ltr" writing-mode="lr-tb" unicode-bidi="normal" text-decoration="none" transform="matrix(1 0 0 1 1022.61 901)">5</text><path d="M1737.5 782.501C1737.5 760.961 1754.96 743.5 1776.5 743.5L1956.5 743.5C1978.04 743.5 1995.5 760.961 1995.5 782.501L1995.5 938.499C1995.5 960.039 1978.04 977.5 1956.5 977.5L1776.5 977.5C1754.96 977.5 1737.5 960.039 1737.5 938.499Z" stroke="#BC7D2C" stroke-width="9.16667" stroke-linecap="butt" stroke-linejoin="round" stroke-miterlimit="10" stroke-opacity="1" fill="#FFAB40" fill-rule="evenodd" fill-opacity="1"/><text fill="#FFFFFF" fill-opacity="1" font-family="Arial,Arial_MSFontService,sans-serif" font-style="normal" font-variant="normal" font-weight="400" font-stretch="normal" font-size="110" text-anchor="start" direction="ltr" writing-mode="lr-tb" unicode-bidi="normal" text-decoration="none" transform="matrix(1 0 0 1 1835.52 901)">9</text><path d="M1319.5 782.501C1319.5 760.961 1336.96 743.5 1358.5 743.5L1539.5 743.5C1561.04 743.5 1578.5 760.961 1578.5 782.501L1578.5 938.499C1578.5 960.039 1561.04 977.5 1539.5 977.5L1358.5 977.5C1336.96 977.5 1319.5 960.039 1319.5 938.499Z" stroke="#BC7D2C" stroke-width="9.16667" stroke-linecap="butt" stroke-linejoin="round" stroke-miterlimit="10" stroke-opacity="1" fill="#FFAB40" fill-rule="evenodd" fill-opacity="1"/><text fill="#FFFFFF" fill-opacity="1" font-family="Arial,Arial_MSFontService,sans-serif" font-style="normal" font-variant="normal" font-weight="400" font-stretch="normal" font-size="110" text-anchor="start" direction="ltr" writing-mode="lr-tb" unicode-bidi="normal" text-decoration="none" transform="matrix(1 0 0 1 1417.92 901)">3</text><path d="M2124.5 782.501C2124.5 760.961 2141.96 743.5 2163.5 743.5L2343.5 743.5C2365.04 743.5 2382.5 760.961 2382.5 782.501L2382.5 938.5C2382.5 960.039 2365.04 977.5 2343.5 977.5L2163.5 977.5C2141.96 977.5 2124.5 960.039 2124.5 938.5Z" stroke="#BC7D2C" stroke-width="9.16667" stroke-linecap="butt" stroke-linejoin="round" stroke-miterlimit="10" stroke-opacity="1" fill="#FFAB40" fill-rule="evenodd" fill-opacity="1"/><text fill="#FFFFFF" fill-opacity="1" font-family="Arial,Arial_MSFontService,sans-serif" font-style="normal" font-variant="normal" font-weight="400" font-stretch="normal" font-size="110" text-anchor="start" direction="ltr" writing-mode="lr-tb" unicode-bidi="normal" text-decoration="none" transform="matrix(1 0 0 1 2222.3 901)">1</text><rect x="1706.5" y="709.5" width="316" height="302" stroke="#C00000" stroke-width="9.16667" stroke-linecap="butt" stroke-linejoin="round" stroke-miterlimit="10" stroke-opacity="1" fill="none"/><g clip-path="url(#clip1)"><g clip-path="url(#clip2)"><g clip-path="url(#clip3)"><path d="M2181.35 674.283 2179.52 640.235C2179.22 635.823 2182.66 632.256 2186.7 631.973 2191.12 631.664 2194.68 635.109 2194.97 639.153L2198.06 691.218C2198.19 693.056 2197.75 694.75 2196.55 696.127 2196.38 696.323 2196.21 696.52 2196.04 696.717 2195.87 696.913 2195.7 697.11 2195.36 697.504L2195.02 697.897 2194.67 698.29C2193.62 699.103 2192.18 699.574 2190.88 699.48L2138.81 702.571C2134.4 702.88 2130.83 699.435 2130.55 695.391 2130.24 690.979 2133.69 687.412 2137.73 687.129L2169.74 685.257C2139.09 645.837 2098.33 628.37 2048.46 633.71 2023.9 636.538 2000.02 643.752 1977.92 655.275 1974 657.397 1969.29 656.064 1967.37 652.32 1965.24 648.404 1966.58 643.692 1970.32 641.767 1994.01 629.209 2019.88 621.301 2046.64 618.319 2084.95 613.974 2138.98 620.536 2181.35 674.283Z" fill="#C00000" fill-rule="nonzero" fill-opacity="1"/></g></g></g><text fill="#C00000" fill-opacity="1" font-family="Arial,Arial_MSFontService,sans-serif" font-style="normal" font-variant="normal" font-weight="400" font-stretch="normal" font-size="92" text-anchor="start" direction="ltr" writing-mode="lr-tb" unicode-bidi="normal" text-decoration="none" transform="matrix(1 0 0 1 2048.14 581)">&gt; ?</text></g></svg>