<svg width="1669" height="999" xmlns="http://www.w3.org/2000/svg" xmlns:xlink="http://www.w3.org/1999/xlink" xml:space="preserve" overflow="hidden"><defs><clipPath id="clip0"><rect x="1012" y="417" width="1669" height="999"/></clipPath><clipPath id="clip1"><rect x="1035" y="457" width="945" height="946"/></clipPath><clipPath id="clip2"><rect x="1035" y="457" width="945" height="946"/></clipPath><clipPath id="clip3"><rect x="1035" y="457" width="945" height="946"/></clipPath><clipPath id="clip4"><rect x="1833" y="537" width="331" height="331"/></clipPath><clipPath id="clip5"><rect x="1833" y="537" width="331" height="331"/></clipPath><clipPath id="clip6"><rect x="1833" y="537" width="331" height="331"/></clipPath><clipPath id="clip7"><rect x="1904" y="929" width="331" height="331"/></clipPath><clipPath id="clip8"><rect x="1904" y="929" width="331" height="331"/></clipPath><clipPath id="clip9"><rect x="1904" y="929" width="331" height="331"/></clipPath></defs><g clip-path="url(#clip0)" transform="translate(-1012 -417)"><g clip-path="url(#clip1)"><g clip-path="url(#clip2)"><g clip-path="url(#clip3)"><path d="M1707.33 1277 1733.91 857.656 1761.47 1222.86 1707.33 1277ZM1646.3 1304.56 1252.55 1304.56 1287 753.312 1330.31 753.312 1330.31 832.062C1330.31 842.891 1339.17 851.75 1350 851.75 1360.83 851.75 1369.69 842.891 1369.69 832.062L1369.69 753.312 1566.56 753.312 1566.56 832.062C1566.56 842.891 1575.42 851.75 1586.25 851.75 1597.08 851.75 1605.94 842.891 1605.94 832.062L1605.94 753.312 1680.75 753.312 1646.3 1304.56ZM1369.69 654.875C1369.69 609.594 1400.2 572.187 1441.55 560.375 1426.78 582.031 1418.91 607.625 1418.91 635.187L1418.91 694.25 1369.69 694.25 1369.69 654.875ZM1493.72 559.391C1536.05 570.219 1566.56 608.609 1566.56 654.875L1566.56 694.25 1458.28 694.25 1458.28 635.187C1458.28 604.672 1472.06 578.094 1493.72 559.391ZM1556.72 536.75C1610.86 536.75 1655.16 581.047 1655.16 635.187L1655.16 694.25 1605.94 694.25 1605.94 654.875C1605.94 605.656 1580.34 562.344 1540.97 537.734 1545.89 537.734 1551.8 536.75 1556.72 536.75ZM1783.12 731.656C1782.14 710.984 1764.42 694.25 1743.75 694.25L1701.42 694.25C1721.11 694.25 1737.84 709.016 1740.8 727.719 1737.84 709.016 1722.09 694.25 1701.42 694.25L1694.53 694.25 1694.53 635.187C1694.53 559.391 1632.52 497.375 1556.72 497.375 1530.14 497.375 1505.53 505.25 1484.86 518.047 1478.95 517.062 1474.03 517.062 1468.12 517.062 1392.33 517.062 1330.31 579.078 1330.31 654.875L1330.31 694.25 1269.28 694.25C1248.61 694.25 1230.89 710 1229.91 731.656L1193.48 1322.28C1192.5 1344.92 1210.22 1363.62 1232.86 1363.62L1665.98 1363.62 1688.62 1363.62C1699.45 1363.62 1710.28 1358.7 1717.17 1350.83L1810.69 1258.3C1818.56 1250.42 1823.48 1238.61 1822.5 1227.78L1783.12 731.656Z" fill="#000000" fill-rule="nonzero" fill-opacity="1"/></g></g></g><text fill="#FFA105" fill-opacity="1" font-family="Arial,Arial_MSFontService,sans-serif" font-style="normal" font-variant="normal" font-weight="400" font-stretch="normal" font-size="183" text-anchor="start" direction="ltr" writing-mode="lr-tb" unicode-bidi="normal" text-decoration="none" transform="matrix(1 0 0 1 1127.84 652)">A<tspan fill="#7030A0" fill-opacity="1" font-family="Arial,Arial_MSFontService,sans-serif" font-style="normal" font-variant="normal" font-weight="400" font-stretch="normal" font-size="183" text-anchor="start" direction="ltr" writing-mode="lr-tb" unicode-bidi="normal" text-decoration="none" x="271.563" y="440">3</tspan><tspan fill="#7030A0" fill-opacity="1" font-family="Arial,Arial_MSFontService,sans-serif" font-style="normal" font-variant="normal" font-weight="400" font-stretch="normal" font-size="183" text-anchor="start" direction="ltr" writing-mode="lr-tb" unicode-bidi="normal" text-decoration="none" x="983.125" y="185">10</tspan><tspan fill="#7030A0" fill-opacity="1" font-family="Arial,Arial_MSFontService,sans-serif" font-style="normal" font-variant="normal" font-weight="400" font-stretch="normal" font-size="183" text-anchor="start" direction="ltr" writing-mode="lr-tb" unicode-bidi="normal" text-decoration="none" x="1118.91" y="609">“Hi”</tspan></text><g clip-path="url(#clip4)"><g clip-path="url(#clip5)"><g clip-path="url(#clip6)"><path d="M1868.72 727.75 1869.06 682.375C1869.06 676.531 1864.59 672.062 1858.75 672.062 1852.91 672.062 1848.44 676.531 1848.44 682.375L1847.75 751.125C1847.75 753.531 1848.44 755.594 1850.16 757.656 1850.16 758 1850.5 758 1850.84 758.344 1851.19 758.687 1851.19 759.031 1851.87 759.375 1851.87 759.375 1852.22 759.719 1852.56 759.719 1852.56 759.719 1852.91 760.062 1853.25 760.062 1854.62 761.094 1856.34 761.437 1858.06 761.437L1926.81 762.125C1932.66 762.125 1937.12 757.656 1937.12 751.812 1937.12 745.969 1932.66 741.5 1926.81 741.5L1884.19 741.156C1921.66 687.187 1974.25 661.406 2040.59 664.844 2073.25 666.906 2105.22 674.812 2135.12 688.562 2140.28 690.969 2146.12 688.906 2148.53 683.75 2150.94 678.937 2149.22 672.75 2144.06 670 2112.09 655.219 2077.38 646.281 2041.97 644.219 1991.44 641.469 1920.62 653.844 1868.72 727.75Z" fill="#7030A0" fill-rule="nonzero" fill-opacity="1"/></g></g></g><g clip-path="url(#clip7)"><g clip-path="url(#clip8)"><g clip-path="url(#clip9)"><path d="M1938.72 1119.75 1939.06 1074.37C1939.06 1068.53 1934.59 1064.06 1928.75 1064.06 1922.91 1064.06 1918.44 1068.53 1918.44 1074.37L1917.75 1143.12C1917.75 1145.53 1918.44 1147.59 1920.16 1149.66 1920.16 1150 1920.5 1150 1920.84 1150.34 1921.19 1150.69 1921.19 1151.03 1921.88 1151.37 1921.88 1151.37 1922.22 1151.72 1922.56 1151.72 1922.56 1151.72 1922.91 1152.06 1923.25 1152.06 1924.62 1153.09 1926.34 1153.44 1928.06 1153.44L1996.81 1154.12C2002.66 1154.12 2007.12 1149.66 2007.12 1143.81 2007.12 1137.97 2002.66 1133.5 1996.81 1133.5L1954.19 1133.16C1991.66 1079.19 2044.25 1053.41 2110.59 1056.84 2143.25 1058.91 2175.22 1066.81 2205.12 1080.56 2210.28 1082.97 2216.12 1080.91 2218.53 1075.75 2220.94 1070.94 2219.22 1064.75 2214.06 1062 2182.09 1047.22 2147.38 1038.28 2111.97 1036.22 2061.44 1033.47 1990.62 1045.84 1938.72 1119.75Z" fill="#7030A0" fill-rule="nonzero" fill-opacity="1"/></g></g></g></g></svg>