<svg width="926" height="280" xmlns="http://www.w3.org/2000/svg" xmlns:xlink="http://www.w3.org/1999/xlink" xml:space="preserve" overflow="hidden"><defs><clipPath id="clip0"><rect x="1471" y="1150" width="926" height="280"/></clipPath><clipPath id="clip1"><rect x="1710" y="1193" width="168" height="167"/></clipPath><clipPath id="clip2"><rect x="1710" y="1193" width="168" height="167"/></clipPath><clipPath id="clip3"><rect x="1710" y="1193" width="168" height="167"/></clipPath></defs><g clip-path="url(#clip0)" transform="translate(-1471 -1150)"><path d="M1650.5 1198.67C1650.5 1177.04 1668.04 1159.5 1689.67 1159.5L1895.33 1159.5C1916.96 1159.5 1934.5 1177.04 1934.5 1198.67L1934.5 1355.33C1934.5 1376.96 1916.96 1394.5 1895.33 1394.5L1689.67 1394.5C1668.04 1394.5 1650.5 1376.96 1650.5 1355.33Z" stroke="#BC7D2C" stroke-width="9.16667" stroke-linecap="butt" stroke-linejoin="round" stroke-miterlimit="10" stroke-opacity="1" fill="#FFAB40" fill-rule="evenodd" fill-opacity="1"/><text fill="#FFFFFF" fill-opacity="1" font-family="Arial,Arial_MSFontService,sans-serif" font-style="normal" font-variant="normal" font-weight="400" font-stretch="normal" font-size="110" text-anchor="start" direction="ltr" writing-mode="lr-tb" unicode-bidi="normal" text-decoration="none" transform="matrix(1 0 0 1 1730.48 1317)">10</text><g clip-path="url(#clip1)"><g clip-path="url(#clip2)"><g clip-path="url(#clip3)"><path d="M145.081 36.7051 130.295 21.9187 83.4999 68.7134 36.7051 21.9187 21.9187 36.7051 68.7134 83.4999 21.9187 130.295 36.7051 145.081 83.4999 98.2863 130.295 145.081 145.081 130.295 98.2863 83.4999Z" fill="#FF0000" fill-rule="nonzero" fill-opacity="0.6" transform="matrix(1 0 0 1 1711 1193)"/></g></g></g><text fill="#404040" fill-opacity="1" font-family="Arial,Arial_MSFontService,sans-serif" font-style="normal" font-variant="normal" font-weight="400" font-stretch="normal" font-size="110" text-anchor="start" direction="ltr" writing-mode="lr-tb" unicode-bidi="normal" text-decoration="none" transform="matrix(1 0 0 1 1541.3 1302)">a<tspan fill="#404040" fill-opacity="1" font-family="Arial,Arial_MSFontService,sans-serif" font-style="normal" font-variant="normal" font-weight="400" font-stretch="normal" font-size="128" text-anchor="start" direction="ltr" writing-mode="lr-tb" unicode-bidi="normal" text-decoration="none" x="634.37" y="22">30</tspan></text><path d="M1.44251e-05-10.3125 206.439-10.3122 206.439 10.3128-1.44251e-05 10.3125ZM196.127-30.9372 258.002 0.000360892 196.127 30.9378Z" fill="#FF0000" fill-rule="nonzero" fill-opacity="1" transform="matrix(-1 0 0 1 2143.5 1276.5)"/></g></svg>